/* XPM */
static char *result[] = {
/* columns rows colors chars-per-pixel */
"64 64 19 1 ",
"  c black",
". c #202020",
"X c gray22",
"o c #000040",
"O c #00004C",
"+ c #000058",
"@ c #000064",
"# c #000070",
"$ c #00007C",
"% c gray33",
"& c #000088",
"* c #000098",
"= c #0000A4",
"- c #0000B0",
"; c #0000BC",
": c #0000C8",
"> c #0000D4",
", c #0000E0",
"< c #4040FC",
/* pixels */
"%%%%%%%%%%%%%%%%%%%%%%%%%%%%%%%%%%%%%%%%%%%%%%%%%%%%%%%%%%%%%%%%",
"%=====================..;;;;;;;;;;;;;;;;;;;;;;;;;;;;..---------%",
"%===&=$==*$**$**$=$##+ .;=;-$=;*##*&==&#&=;=&*=;;=*# .-;=*=--*$%",
"%=*$&***$$=*=@**$#$$#@ .;;=***#*+#++$==@##@##+#&&#@# .--==$*==+%",
"%=&=#::*$$$*&&$@+$#++@ .                             .-=-;;-=$$%",
"%=&$=::@$$$=***&##$++o .===================...........-;=-=$$@+%",
"%=**--===*===**##@+@#@ .=;;;-=**;**-**-;;== .====**@..-**=$&&@@%",
"%==*=--=*$@==*&&$@@+oo .=-;,:-=;=***--===*= .=**&*$@ .-**=#&&&@%",
"%=*$*==&*$*##&&&#$$@+o .=-:;:*-==;**=$=$*=$ .=***$$@ .-;=*==&&o%",
"%=&&&=$$$==#+@@#@$$$+o .=---***-====*&@$$$@ .==*$$++ .;$$*==*+o%",
"%*$&=&&#*==##@+@@@$$+o .=;---**-;;==@@&$$@+ .==*$=$+ .;$;=$**+o%",
"%*&*$$=&@$+$@+@$o+oo@o .=;==----;--=@@#=@@o .=$&*$++ .;;$$@@$$o%",
"%*$*$@&&$@$@$@o##ooo@o .=-==*;**=--=**$$++@ .=&&&##@ .;$#@$@$$o%",
"%**$$$#@++@$@#@oo#o@+o .=-,:&&**&$$$&*&$@@o .==&&##@ .;$$#++++o%",
"%*$*@@#@$@oooooooooooo .=;::&&&==$&&$&#$@+o .=$*=+++ .         %",
"%                      .=;==*&&===&&*@@$@+o .===*=+@ ..........%",
"%;-=-=====-==== ---==** =-*=&*====$**$$++oo .*=*=*#@ .==== ;;;;%",
"%-=*=;-=&==$=*$ --*;;$; ====;=*===&@#$oo@+o .**$#$#+ .=-&$ ;;=-%",
"%-**&==&$**$$** -;;-*$$ =-*=;=&$&&@$$#oo@oo .**+++@o .=--$ ;=--%",
"%=*--**$$$*$$$$ -;--**@ =-===&=$$@##+++@@+o .*$+@++o .=&$+ ;;;-%",
"%&*-;-$$**$*+$$ -;*$**@ ===****$@+@@+@@+ooo .*$@++oo .=+@+ ;;--%",
"%=&*->$*$$@@#$$ -*;$$$@                     .             .;;==%",
"%&$&*=*$$*@#$++ -**@$$+ .........................--------..;==*%",
"%=&*$*$**$#$@$+ -;*&@+@ .--------------------*=..-:-:===* .;-**%",
"%-*&-****$$#+++ =;$&&@+ .-;-=;;;-;=-=;-$=;;;$=+ .-:-::=*& .;;**%",
"%=&$&--@$*&&#+@ =$@##+@ .-;=-:,,;>,=;==;;====$+ .-::::=&$ .;-;=%",
"%*$&=--=*$&&#+@ *$++++@ .--=;>>,;,>>-$=$$=$$=++ .--=:=&=@ .;;;=%",
"%*-**=-=@$###++         .-;;--::==>>==$$$#=$$++ .-:====&@ .;;;-%",
"%&&==*==@#+@+oo .........--;---===;===$&&$$+++@ .-::==&$# .;==;%",
"%*&===*$#@+@@++ .----==..-==;-&&=;-$==$&&&###++ .-::**==+ .;==-%",
"%&*&==$@@+++@o@ .--&=*& .-;-;-&&===$===#&&+###o .--:***=+ .;;**%",
"%&&$&&$@@#$$@oo .-==*&* .-;;=---*=$$$==#+@+@##o .--=&-==@ .;&&*%",
"%&=*#$$#@#$$@+o .-=*&#@ .-;=$=--==$#$@###+oo+oo .--:&--*@ .;&&$%",
"%=*&&$@@+OO#@+o .--&-&+ .-==;$==*$#$$@@##@oo@@o .-=:=&**+ .;;$$%",
"%**&$$$$+OO++@o .---##@ .-$;$==$$#@$$$@@++@@@Oo .-:==*+#@ .;==*%",
"%&&$#$$$++@++++ .---=++ .-=;$==#@@+$$$@++++OOOo .-:=*$*#+ .;==*%",
"%&@#$@$$+@+o+@+ .-**+&@ .-=$==$++++@@@@+ooooooo .-:=$**$@ .;*==%",
"%*$@$@#+@oo+ooo .-**-+@ .                       .=-=$@$$@ .;*&&%",
"%&*&#$#+++o@o+o .--&-&+ .........................=--=$+@o .;;&&%",
"%*&$@#$#ooooooo .--&&+@ .======================..=-=;=$@o .;**$%",
"%               .--$$++ .=;;;;;;-=======*&$;*=$ .=:==;&+o .    %",
"%....++##&&&$#@..=-$$$+ .-;::;==--:;**==*$&$&*$ .====&&+o .&*&&%",
"%*=-;;;;;;;;;;;..==&$$@ .-;:::----;;$$$$===**$@ .=:=$#++o .**$$%",
"%=;;;;;-=-;===; .==*+@@ .-;;;;>>---$$$$$$*$$#*@ .=-&#@+#o .*$##%",
"%=;-->>-;;;*=;; .=*&+++ .-;;-;>>>$=*$$###&$$$$@ .==#@#++o .*#$+%",
"%;;;->>;**=;;*- .       .=-;-;;>>;==*$##@@+$$$@ .&$$+++@o .&$#+%",
"%;=-=---***;=&& .........==-:**;=;====$$@@$@+OO .         .&#+@%",
"%;;-*&--=**=;;= .;;-==*..==::***-===$$*&#@@++oo ...............%",
"%;;*=;-&=---$== .;$;&*& .=;;;-**;;;=$$$$@@@++oo .----;;;;;;;;;;%",
"%;;;;=&;&-$$=&= .;=--*$ .=-==---;;;;=$&#+@@@#+O .--==----=&;==$%",
"%;=;*==;-*$O$== .;;$=$# .=;===*=;;;;===++++@##@ .-=->>---*===*$%",
"%;-**;,;=&=$$== .;-==$= .=;;==;&&;;;===#++@+OOO .-;;>::--&&=*$@%",
"%;=;=,<,**=*&$& .;-=$=# .==;**$$$&===$$$@@+++oo .-*;*::--==$$$+%",
"%;-;-;,;=$==OO@ .;=--$@ .==;=&&$$$&$&++**##+Ooo .-;-***==$$$$+@%",
"%;=;---&&&$#OO@ .;;-*&@ .=*;;*;$$&$$&$+**&##@+@ .--=***=$#@$++@%",
"%=;--=$$*=**$@@ .;-=&&$ .=;*=;=&$##&&++$**$#++o .--*=**=$#@#$++%",
"%;=;-&&-$==*#$+ .;=;$$$ .=;===*&==##+#++$$$@++o .--;-&--*$@**+o%",
"%;=;=*&$@&==*#@ .;;=@@@ .===**$&===#@##+OOO@ooo .;;-&=---*$**$o%",
"%-=&&&=@O@&**## .;-=$#+ .=-=**;=$==++##@+oo+ooo .;-=&==--*$$$$o%",
"%-=#@&@=$$*+@++ .-=@@@+ .=-;$;;=+@@@++OOOooO+oo .;-=;==$&##$$+o%",
"%==&&@&+@+@#@#@ .-=&#@@ .==-;=$*+@@@++oo##@oOo+ .;;;*=$$#$$#@o@%",
"%=*$$$$$####$$$..=&$$$$..==*=*$$$$$$#@++$$$$++#..;==$*=$$$$$##$%",
"%&&&$$$$$$$$$$$XX&&$$$$XX=:&&&&&$$$$$$$$$$$$$$$XX;&&$$$$$$$$$$$%",
"%%%%%%%%%%%%%%%%%%%%%%%%%%%%%%%%%%%%%%%%%%%%%%%%%%%%%%%%%%%%%%%X"
};
