/* XPM */
static char *result[] = {
/* columns rows colors chars-per-pixel */
"64 64 27 1 ",
"  c #202020",
". c #2C2C2C",
"X c gray19",
"o c #343434",
"O c gray22",
"+ c #400000",
"@ c #4C0000",
"# c #580000",
"$ c #640000",
"% c #700000",
"& c #7C0000",
"* c gray25",
"= c #484848",
"- c #4C4C4C",
"; c gray33",
": c gray36",
"> c #646464",
", c #880000",
"< c #980000",
"1 c #A40000",
"2 c #B00000",
"3 c #BC0000",
"4 c #C80000",
"5 c #D40000",
"6 c #E00000",
"7 c #EC0000",
"8 c white",
/* pixels */
"8888888888888888888888888888888888888888888888888888888888888888",
"8O;=====;======;=O=======;;;;;;=========;;;;;;;====OOO==;;=====8",
"8775555555551==;775555555555555555551=O;777766666655555444433318",
"874225,15,41$.=;73,3,3,3&3<3<3&3&341%.=O51424224%4&424,21&4<41&8",
"851&1,1<%1,%$.=;53,,1,%11%<11%<1%1<%#.=;511&$1,%,1&,11,1&,1#1%$8",
"85&11%<11%1#+.=;5,31,1%1,1%1%,&1%<&%#.==5%1$,1$1%1&1,1$1<&1&1%@8",
"841&,<&1%,1%+.=;33,1,,<1%,%1,%<&,%1%+.O=3%1&1,$1%%11%1,11&1#1,@8",
"83&11%1<%<%#+.==34,1%1%1%1%<,%&1%<&%#.O=3<1$,1&,%,&1,1$1&,1&1%+8",
"831%,#%&#%,%+.O;<<%%@,%%,%@%,%,%@,%%+.O=3%%#%%@,@%#,@%@,$@%,%,+8",
"8&$$$++++++++.O=&$$#########+++++++++.O=,$$$$$$$$$$#########+++8",
"8=........   .O;=.....     ..    .....=;O...........     ......8",
"8OOOO====OOOOO=O=======OOO;===OO======;O=;;;;:>>:;;==*O*;O;===;8",
"8555333333333331=;=7755555544444443333333333333333331=*;77555558",
"8,,2<&2&<,2$2,1+O=;7%24&3$,3,,4<1,&,1,1,1&4$4,<34<41+O=O74&2,2,8",
"81,1&,,$1,$,11%+.==52%1&11,1$1%$,1&1&1$11,$1,1%,1%1%+O=;42&1,&18",
"811,<$1&,,<$1,%+.O=5%1,<,,$,,%1,$1,&$&,,1#,&1%1%11%%+.*=4&111&18",
"8,,1,&&,&1<$1$%+.O=5%11&1$,1$%1$,1&,&1$1,#1$1%,%1%1%+.O=42&1&1<8",
"81$1%,&<$1$,11%+.=;52#1&1,$,#,%$1,&#&1$,#,1$,1%,1%1%+ O=2&11#1&8",
"82$%@&%<%<%#<%%+.=;21%,#%<%,$%,#%<%<$,%,,#<%%,@%<%,%+ *;21&%#%<8",
"8@@@@@@@@@@@@+++O=;1$$$$$$$$$$$$$##################++ =O1$+$++$8",
"8.. ...   ...  .O=O=Oo......ooOOo...     ...    .....O=;=......8",
"8;=OO=;O;O==OOOO==;===*O*O*O*===;O;=*OOO**==;*OO*===;=;O;*O*;==8",
"8775555555333333333333333331=;;775555555555333333333333333333318",
"87,23&3&3&2,2,24,2,2,32$24%+O=;73%512,12,2<2&$1,%,1&,1<,1&,1#1+8",
"872,1<1&%,11,<,1,$1%1,$,1%2+.=:53<1$1$,%<,$1$,1$1%1&1,1$1<&1&%+8",
"83$11%,#1$1%1,<1$,1%,1,$&1%+.;>53&1&1$1%<1&1&1,$1%%1<%<,11&1#%+8",
"832,1@1#%,1,%&1&,$&1$1,$1%#+.;:5%1%<,$,<%1$,$,1&,%,&1,1$1&,1&%+8",
"83%$1@,&1$1#1$1,$,1,$1$,&&2+.=;54%1%1,1,%1$1#%%@1@1#1@11,$@%,%+8",
"841$%%%#%@%%,$,%%,%%$%<%<%%+.O;41%<%,#%%%%$,%,@1#%1@%,@1#1@1%%+8",
"81<$$$$$$$$$$$$$$@@@@@@@@@++.O;1$$$$$$$$$$$$$$############+#&#+8",
"8=O.................OOO......===........     .OOO.   ..........8",
"8;;;;==O=OOO=;>>;;;===**OO*OO*;===;O;=;=*O*O*=;;==*O*===;O;===;8",
"83333333331=O;55555555333333333333333331=;;475555555553333333338",
"8212<42241+O=O51$1%11$1,11%1,$11$11%1&1+O=;51&1%11$1&,&1%1,1&1%8",
"8&,1<1&1,%+.=;5$1&,1&1<%1,,%,,1,$1%,1$1+O;;51#1%1,$1,1&,,<%<&<,8",
"8&1<&1&<1%+.=O5$11&<1%1%1,1#1@,,1,%<1&1+O;>51&1%1,1,11&1%<,1<&18",
"8,&1<1<&,%+O=;5<$1&1&#<,,,%,1$1,$,<%,1&+O;>5&11%1$11&&1&1,<<,&%8",
"8,&1&1&<1%+O==5$1&#<1%,,1,1%,@$<$1<%1&1+O=;41&11%1,,&1&1%<,1&,18",
"8%,<%%<%%%+O==<$11#1&%1%1$1#,$1,$<%<1$&+.=;41#1%11,1,1&1%<%<&118",
"8+@@@@@@@++.==1$$$$$$$$$##############++.==1$$$$$$$$$$$$$$$####8",
"8...........=;=.    ..OOO.     .........O===....OO=O..   ......8",
"8=;O=OO==OOOO==OOO=====;;==OOO;===;O=O=O==;=;O;=;:>;-==O;=;=;O;8",
"87555555533333333333333333333331O;O77555555553333333333333333318",
"851,,1$11&<1&1%,1$1&1,1$1$11&%1+O=;711$1$1#1%1#1,#<,%1,&1&<%,1+8",
"851$1,$1,<&1$,#1<$1#,<,$1&1&1%<+.==5,1$,$&#,#<&1#1$1%,%1,&<1$,+8",
"85,$1$,%$1$1,&,1$<,,#&1@<#,$,,%+.O=5,1$$,1&#1&#<1#1%%1%1&1%,$1+8",
"851,1,$1,&<1&1#,1$1#,1#<1&111%&+.O=51$1,$1#1%<&&#,$1&,<,<&%1,1+8",
"851$,1$1$1$1$1%1$$1#,&1&,$<$,%1+ O;51$$1$&#1#1#<#1$,%1%&1&<,$%+8",
"841$1$,%,<&1,,,1<$,&#$1@1%<&1%1+ O;4%1$,$1#&1&#<%,$1%1%1&<%1$1+8",
"81$$$$$$$$$@@@@@@@@@@@@@@@@@@@@+.=;1$$$$$$$$$#####@@@@@@@@@@@++8",
"8=..........OOO.    ...    ..  ..=O=......   .oOo. ....   .....8",
"8O;O;=;====;>>;=;O;=;=*OOO*=;==O==;O;========-;;;-====OX  XO==;8",
"855553333333333331=;=77555555553333333333333331=O;75555533333338",
"81#11$<$1&4&1$1&1+.==51111$1@1&1$1$1<1$1$1#1%$+O=;51$,1#1%1%1$18",
"8&&1&1$<&$1#&$,$,+.==5&1%1$%@&<&1,$,<$&,%,#1$1+o=;5$1#1%1%,1%1,8",
"8&#&1$<$&1&#1,$<&+.=*5&&%1$&&1#1@11$1$1$,#,,$%+.=;5$1%%11,%,%$%8",
"8<#<$$1$1&1#&%$1$+.=*51@%1$1@1&<$1$,&$1$1,#%<$+.=;51$#1,%%1%1$%8",
"81&1$1$,1$1&#,1&,+.=*5@11$1&%,#&@1$1$&&$,%#,%$+.==5$1,1%1,%%#1%8",
"81&&$<<$<$&#1$1$<+.==5@1%1$&&,@<$,@1&$1,$1#1#,+.O=5$1#%#1%1%#$18",
"8<#1$$,$&&1#1$%,&+.=;41@%1$1@,$1$1%$1$&1$,%,$,+.O=4$$#1#1%1%1$18",
"8@@@@@@@@@@@@@@@++.==1+++++@@@@@@@@@@@@@@@@@@++ =;1++@@@@@@@@@@8",
"8..................=;=Ooo..............     .   O==......     .8",
"8;O;OOO=====;;O====;;;;;===;===;==O===*OO*OO*=*O*;==O;====*O*==8",
"8888888888888888888888888888888888888888888888888888888888888888"
};
